<?xml version="1.0" encoding="UTF-8"?>
<svg width="150px" height="58px" viewBox="0 0 150 58" version="1.1" xmlns="http://www.w3.org/2000/svg" xmlns:xlink="http://www.w3.org/1999/xlink">
    <!-- Generator: Sketch 46.2 (44496) - http://www.bohemiancoding.com/sketch -->
    <title>Artboard</title>
    <desc>Created with Sketch.</desc>
    <defs></defs>
    <g id="Page-1" stroke="none" stroke-width="1" fill="none" fill-rule="evenodd">
        <g id="Artboard" fill="#000000">
            <path d="M19.0227701,17 L19.0227701,18.4567525 L17.7875047,18.4567525 L17.7875047,26.1423775 L16.2352655,26.1423775 L16.2352655,18.4567525 L15,18.4567525 L15,17 L19.0227701,17 Z M19.8618184,17 L21.4140576,17 L21.4140576,20.8405292 L22.3323493,20.8405292 L22.3323493,17 L23.8845885,17 L23.8845885,26.1423775 L22.3323493,26.1423775 L22.3323493,22.3018483 L21.4140576,22.3018483 L21.4140576,26.1423775 L19.8618184,26.1423775 L19.8618184,17 Z M25.096547,17 L28.7510682,17 L28.7510682,18.4567525 L26.6487863,18.4567525 L26.6487863,20.8405292 L28.4574014,20.8405292 L28.4574014,22.3018483 L26.6487863,22.3018483 L26.6487863,24.6856251 L28.7510682,24.6856251 L28.7510682,26.1423775 L25.096547,26.1423775 L25.096547,17 Z M15.6483555,26.4894408 L18.6112975,26.4894408 C20.4283969,26.4938691 21.336933,27.4525734 21.336933,29.3655825 L21.336933,31.3250785 C21.336933,32.7288375 20.6883015,33.6388317 19.3910191,34.0550883 C19.0791289,34.15251 18.631641,34.2012202 18.0485419,34.2012202 L17.906158,34.2012202 L17.906158,39.7874445 L15.6483555,39.7874445 L15.6483555,26.4894408 Z M17.906158,28.6083535 L17.906158,32.0756651 L18.1773655,32.0756651 C18.4214535,32.0756651 18.5796563,32.0623806 18.6519786,32.035811 C18.9367479,31.9251044 19.0791304,31.688196 19.0791304,31.3250785 L19.0791304,29.3655825 C19.0791304,28.8607606 18.8576465,28.6083535 18.414672,28.6083535 L17.906158,28.6083535 Z M22.7607724,26.4894408 L25.7237144,26.4894408 C27.5408138,26.4938691 28.4493499,27.4525734 28.4493499,29.3655825 L28.4493499,31.3250785 C28.4493499,32.5295657 27.9566612,33.3089281 26.971269,33.6631891 L29.1477092,39.7874445 L26.6865011,39.7874445 L25.1406183,34.068373 L25.0185749,34.068373 L25.0185749,39.7874445 L22.7607724,39.7874445 L22.7607724,26.4894408 Z M25.0185749,28.6083535 L25.0185749,32.0756651 L25.2897824,32.0756651 C25.5338704,32.0756651 25.6920732,32.0623806 25.7643955,32.035811 C26.0491648,31.9251044 26.1915474,31.688196 26.1915474,31.3250785 L26.1915474,29.3655825 C26.1915474,28.8607606 25.9700634,28.6083535 25.527089,28.6083535 L25.0185749,28.6083535 Z M30.2325393,26.4894408 L35.5482064,26.4894408 L35.5482064,28.6083535 L32.4903418,28.6083535 L32.4903418,32.0756651 L35.1210546,32.0756651 L35.1210546,34.2012202 L32.4903418,34.2012202 L32.4903418,37.6685318 L35.5482064,37.6685318 L35.5482064,39.7874445 L30.2325393,39.7874445 L30.2325393,26.4894408 Z M41.3181462,35.3038518 L43.406444,26.4894408 L45.6371258,26.4894408 L45.6371258,39.7874445 L43.4606855,39.7874445 L43.4606855,33.6698314 L42.1317687,39.7874445 L40.5452048,39.7874445 L39.1688267,33.6299773 L39.1688267,39.7874445 L36.9720459,39.7874445 L36.9720459,26.4894408 L39.2027276,26.4894408 L41.3181462,35.3038518 Z M47.4338755,26.4894408 L49.691678,26.4894408 L49.691678,39.7874445 L47.4338755,39.7874445 L47.4338755,26.4894408 Z M57.2719279,37.1238583 C57.2719279,39.0368674 56.2955906,39.9955717 54.3428868,40 C52.3947031,40 51.4206259,39.0412957 51.4206259,37.1238583 L51.4206259,26.4894408 L53.6784284,26.4894408 L53.6784284,37.1238583 C53.6784284,37.6242519 53.8999123,37.874445 54.3428868,37.874445 C54.7903814,37.874445 55.0141254,37.6242519 55.0141254,37.1238583 L55.0141254,26.4894408 L57.2719279,26.4894408 L57.2719279,37.1238583 Z M63.3130752,35.3038518 L65.401373,26.4894408 L67.6320548,26.4894408 L67.6320548,39.7874445 L65.4556145,39.7874445 L65.4556145,33.6698314 L64.1266977,39.7874445 L62.5401338,39.7874445 L61.1637557,33.6299773 L61.1637557,39.7874445 L58.9669748,39.7874445 L58.9669748,26.4894408 L61.1976566,26.4894408 L63.3130752,35.3038518 Z M69.3949036,26.4894408 L72.3578456,26.4894408 C74.174945,26.4938691 75.0834811,27.4525734 75.0834811,29.3655825 L75.0834811,31.3250785 C75.0834811,32.5295657 74.5907923,33.3089281 73.6054001,33.6631891 L75.7818404,39.7874445 L73.3206323,39.7874445 L71.7747495,34.068373 L71.6527061,34.068373 L71.6527061,39.7874445 L69.3949036,39.7874445 L69.3949036,26.4894408 Z M71.6527061,28.6083535 L71.6527061,32.0756651 L71.9239136,32.0756651 C72.1680016,32.0756651 72.3262044,32.0623806 72.3985267,32.035811 C72.683296,31.9251044 72.8256785,31.688196 72.8256785,31.3250785 L72.8256785,29.3655825 C72.8256785,28.8607606 72.6041946,28.6083535 72.1612202,28.6083535 L71.6527061,28.6083535 Z M82.5823687,37.1238583 C82.5823687,39.0368674 81.6060314,39.9955717 79.6533276,40 C77.7051439,40 76.7310667,39.0412957 76.7310667,37.1238583 L76.7310667,29.153027 C76.7310667,27.2400179 77.7051439,26.2835277 79.6533276,26.2835277 C81.6060314,26.2835277 82.5823687,27.2400179 82.5823687,29.153027 L82.5823687,37.1238583 Z M80.3245662,29.153027 C80.3245662,28.6570616 80.1030823,28.4068686 79.6601078,28.4024403 L79.6465474,28.4024403 C79.2080931,28.4024403 78.9888692,28.6526334 78.9888692,29.153027 L78.9888692,37.1238583 C78.9888692,37.6242519 79.2103531,37.874445 79.6533276,37.874445 C80.1008222,37.874445 80.3245662,37.6242519 80.3245662,37.1238583 L80.3245662,29.153027 Z M89.925312,37.1238583 C89.925312,39.0368674 88.9489747,39.9955717 86.9962709,40 C85.0480872,40 84.07401,39.0412957 84.07401,37.1238583 L84.07401,29.153027 C84.07401,27.2400179 85.0480872,26.2835277 86.9962709,26.2835277 C88.9489747,26.2835277 89.925312,27.2400179 89.925312,29.153027 L89.925312,37.1238583 Z M87.6675095,29.153027 C87.6675095,28.6570616 87.4460256,28.4068686 87.0030511,28.4024403 L86.9894907,28.4024403 C86.5510364,28.4024403 86.3318125,28.6526334 86.3318125,29.153027 L86.3318125,37.1238583 C86.3318125,37.6242519 86.5532964,37.874445 86.9962709,37.874445 C87.4437655,37.874445 87.6675095,37.6242519 87.6675095,37.1238583 L87.6675095,29.153027 Z M91.552557,26.4894408 L96.8682242,26.4894408 L96.8682242,28.6083535 L93.8103596,28.6083535 L93.8103596,32.0756651 L96.4410724,32.0756651 L96.4410724,34.2012202 L93.8103596,34.2012202 L93.8103596,39.7874445 L91.552557,39.7874445 L91.552557,26.4894408 Z M98.1903608,26.4894408 L100.448163,26.4894408 L100.448163,39.7874445 L98.1903608,39.7874445 L98.1903608,26.4894408 Z M102.244913,26.4894408 L104.475595,26.4894408 L105.980797,33.0388073 L105.980797,26.4894408 L108.096215,26.4894408 L108.096215,39.7874445 L105.865533,39.7874445 L104.428134,33.4174218 L104.428134,39.7874445 L102.244913,39.7874445 L102.244913,26.4894408 Z M112.733864,32.0756651 L115.574762,32.0756651 L115.574762,37.1238583 C115.574762,39.0368674 114.598425,39.9955717 112.645721,40 C110.697537,40 109.72346,39.0412957 109.72346,37.1238583 L109.72346,29.153027 C109.72346,27.2400179 110.697537,26.2835277 112.645721,26.2835277 C114.598425,26.2835277 115.574762,27.2400179 115.574762,29.153027 L115.574762,31.0394571 L113.31696,31.0394571 L113.31696,29.153027 C113.31696,28.6570616 113.095476,28.4068686 112.652501,28.4024403 L112.638941,28.4024403 C112.200487,28.4024403 111.981263,28.6526334 111.981263,29.153027 L111.981263,37.1238583 C111.981263,37.6242519 112.202747,37.874445 112.645721,37.874445 C113.093216,37.874445 113.31696,37.6242519 113.31696,37.1238583 L113.31696,34.2012202 L112.733864,34.2012202 L112.733864,32.0756651 Z M117.134205,37.3629833 L119.676776,37.3629833 L119.676776,39.7874445 L117.134205,39.7874445 L117.134205,37.3629833 Z M127.087521,37.1238583 C127.087521,39.0368674 126.111184,39.9955717 124.15848,40 C122.210296,40 121.236219,39.0412957 121.236219,37.1238583 L121.236219,29.153027 C121.236219,27.2400179 122.210296,26.2835277 124.15848,26.2835277 C126.111184,26.2835277 127.087521,27.2400179 127.087521,29.153027 L127.087521,31.0394571 L124.829718,31.0394571 L124.829718,29.153027 C124.829718,28.6570616 124.608234,28.4068686 124.16526,28.4024403 L124.1517,28.4024403 C123.713245,28.4024403 123.494021,28.6526334 123.494021,29.153027 L123.494021,37.1238583 C123.494021,37.6242519 123.715505,37.874445 124.15848,37.874445 C124.605974,37.874445 124.829718,37.6242519 124.829718,37.1238583 L124.829718,35.2374283 L127.087521,35.2374283 L127.087521,37.1238583 Z M134.355882,35.0182304 L135,39.7874445 L132.721857,39.7874445 L132.348947,37.024223 L130.687801,37.024223 L130.30811,39.7874445 L128.036747,39.7874445 L128.680865,35.0381575 L130.057243,26.4894408 L132.986284,26.4894408 L134.355882,35.0182304 Z M132.057399,34.8986679 L131.514984,30.8733981 L130.972568,34.8986679 L132.057399,34.8986679 Z" id="THE-PREMIUMROOFING.C"></path>
        </g>
    </g>
</svg>